<?xml version="1.0" encoding="utf-8"?>
<!-- Generator: Adobe Illustrator 16.0.0, SVG Export Plug-In . SVG Version: 6.00 Build 0)  -->
<!DOCTYPE svg PUBLIC "-//W3C//DTD SVG 1.1//EN" "http://www.w3.org/Graphics/SVG/1.1/DTD/svg11.dtd">
<svg version="1.1" id="Layer_1" xmlns="http://www.w3.org/2000/svg" xmlns:xlink="http://www.w3.org/1999/xlink" x="0px" y="0px"
	 width="300px" height="300px" viewBox="0 0 300 300" enable-background="new 0 0 300 300" xml:space="preserve">
<circle fill="none" stroke="#000000" stroke-width="16" stroke-miterlimit="10" cx="150" cy="150" r="138"/>
<path fill="#050000" stroke="#000000" stroke-width="2" stroke-miterlimit="10" d="M89.114,116.578c0,0,0.409-22.062,8.761-35.681
	c8.353-13.618,18.543-21.471,25.807-24.195c7.263-2.724,19.622-6.015,32.15-5.289c12.528,0.727,26.336,5.073,32.509,10.702
	c6.173,5.628,15.8,11.978,19.976,26.323c4.176,14.345,3.089,27.96-1.996,39.399s-16.341,17.066-23.786,26.69
	s-13.538,11.076-20.437,27.963c0,0-2.098,9.078-2.098,15.252s0,6.538,0,6.538l-25.412-0.909c0,0,0.641-25.604,8.085-36.316
	c7.444-10.712,16.662-21.97,24.652-28.688c7.988-6.718,11.053-12.529,11.78-14.345c0.727-1.815,3.802-6.354,3.802-16.16
	c0-9.805-0.188-16.161-4.363-21.971s-12.713-11.075-18.522-11.802c-5.812-0.727-12.53-1.271-19.431,0.363
	c-6.9,1.634-11.621,3.631-14.89,7.626c-3.268,3.995-5.812,7.808-7.446,13.074c-1.634,5.266-3.087,10.532-3.087,14.526
	s0.182,4.54,0.363,6.355C115.714,117.849,89.114,116.578,89.114,116.578z"/>
<polygon fill="#050000" stroke="#000000" stroke-width="2" stroke-miterlimit="10" points="133,222.5 161.348,223.079 
	162.234,246.25 133,246.829 "/>
</svg>
