<?xml version="1.0" encoding="utf-8"?>
<!-- Generator: Adobe Illustrator 16.0.0, SVG Export Plug-In . SVG Version: 6.00 Build 0)  -->
<!DOCTYPE svg PUBLIC "-//W3C//DTD SVG 1.1//EN" "http://www.w3.org/Graphics/SVG/1.1/DTD/svg11.dtd">
<svg version="1.1" id="Capa_1" xmlns="http://www.w3.org/2000/svg" xmlns:xlink="http://www.w3.org/1999/xlink" x="0px" y="0px"
	 width="775.461px" height="769.462px" viewBox="124.108 -102.891 775.461 769.462"
	 enable-background="new 124.108 -102.891 775.461 769.462" xml:space="preserve">
<circle fill="#FFFFFF" stroke="#000000" stroke-width="25" stroke-miterlimit="10" cx="514" cy="282" r="369.5"/>
<g>
	<g>
		<polygon points="404.421,251.948 404.421,231.329 348.52,231.329 348.52,175.424 327.899,175.424 327.899,231.329 
			271.995,231.329 271.995,251.948 327.899,251.948 327.899,307.85 348.52,307.85 348.52,251.948 		"/>
		<path d="M628.564,300.094H472.503c-52.39,0-95.014,42.624-95.014,95.014v54.89h346.089v-54.89
			C723.578,342.719,680.954,300.094,628.564,300.094z M702.959,429.378h-304.85v-34.269c0-41.021,33.372-74.393,74.394-74.393
			h156.062c41.019,0,74.392,33.372,74.392,74.393L702.959,429.378L702.959,429.378z"/>
		<path d="M550.534,290.333c55.078,0,99.888-44.811,99.888-99.889s-44.81-99.889-99.888-99.889s-99.888,44.809-99.888,99.889
			C450.646,245.523,495.456,290.333,550.534,290.333z M550.534,111.177c43.707,0,79.267,35.559,79.267,79.269
			c0,43.71-35.56,79.268-79.267,79.268c-43.708,0-79.269-35.56-79.269-79.268S506.826,111.177,550.534,111.177z"/>
	</g>
</g>
</svg>
