<?xml version="1.0" encoding="utf-8"?>
<!-- Generator: Adobe Illustrator 16.0.0, SVG Export Plug-In . SVG Version: 6.00 Build 0)  -->
<!DOCTYPE svg PUBLIC "-//W3C//DTD SVG 1.1//EN" "http://www.w3.org/Graphics/SVG/1.1/DTD/svg11.dtd">
<svg version="1.1" id="Layer_1" xmlns="http://www.w3.org/2000/svg" xmlns:xlink="http://www.w3.org/1999/xlink" x="0px" y="0px"
	 width="50px" height="50px" viewBox="0 0 50 50" enable-background="new 0 0 50 50" xml:space="preserve">
<g id="Layer_2">
</g>
<g id="Layer_1_1_">
	
		<circle fill="none" stroke="#FFFFFF" stroke-width="2" stroke-linejoin="round" stroke-miterlimit="10" cx="25.36" cy="25" r="14.625"/>
	<g>
		<path fill="#009AC4" d="M25.7,36c0,0.898-0.4,0.898-0.4,1.799c0,0.896,0.4,0.896,0.4,1.795c0,0.9-0.4,0.9-0.4,1.801
			c0,0.901,0.4,0.901,0.4,1.805c0,0.9-0.4,0.9-0.4,1.802"/>
		<path fill="none" stroke="#FFFFFF" stroke-width="2" stroke-linejoin="round" stroke-miterlimit="10" d="M25.7,36
			c0,0.898-0.4,0.898-0.4,1.799c0,0.896,0.4,0.896,0.4,1.795c0,0.9-0.4,0.9-0.4,1.801c0,0.901,0.4,0.901,0.4,1.805
			c0,0.9-0.4,0.9-0.4,1.802"/>
	</g>
	<g>
		<path fill="#009AC4" d="M25.7,5c0,0.899-0.4,0.899-0.4,1.798c0,0.898,0.4,0.898,0.4,1.796c0,0.9-0.4,0.9-0.4,1.8
			c0,0.902,0.4,0.902,0.4,1.803c0,0.901-0.4,0.902-0.4,1.803"/>
		<path fill="none" stroke="#FFFFFF" stroke-width="2" stroke-linejoin="round" stroke-miterlimit="10" d="M25.7,5
			c0,0.899-0.4,0.899-0.4,1.798c0,0.898,0.4,0.898,0.4,1.796c0,0.9-0.4,0.9-0.4,1.8c0,0.902,0.4,0.902,0.4,1.803
			c0,0.901-0.4,0.902-0.4,1.803"/>
	</g>
	<g>
		<path fill="#009AC4" d="M16,25.7c-0.899,0-0.899-0.4-1.798-0.4c-0.898,0-0.898,0.4-1.796,0.4c-0.9,0-0.9-0.4-1.8-0.4
			c-0.902,0-0.902,0.4-1.803,0.4c-0.901,0-0.902-0.4-1.803-0.4"/>
		<path fill="none" stroke="#FFFFFF" stroke-width="2" stroke-linejoin="round" stroke-miterlimit="10" d="M16,25.7
			c-0.899,0-0.899-0.4-1.798-0.4c-0.898,0-0.898,0.4-1.796,0.4c-0.9,0-0.9-0.4-1.8-0.4c-0.902,0-0.902,0.4-1.803,0.4
			c-0.901,0-0.902-0.4-1.803-0.4"/>
	</g>
	<g>
		<path fill="#009AC4" d="M44,25.7c-0.898,0-0.898-0.4-1.799-0.4c-0.896,0-0.896,0.4-1.795,0.4c-0.9,0-0.9-0.4-1.801-0.4
			c-0.901,0-0.901,0.4-1.805,0.4c-0.9,0-0.9-0.4-1.801-0.4"/>
		<path fill="none" stroke="#FFFFFF" stroke-width="2" stroke-linejoin="round" stroke-miterlimit="10" d="M44,25.7
			c-0.898,0-0.898-0.4-1.799-0.4c-0.896,0-0.896,0.4-1.795,0.4c-0.9,0-0.9-0.4-1.801-0.4c-0.901,0-0.901,0.4-1.805,0.4
			c-0.9,0-0.9-0.4-1.801-0.4"/>
	</g>
</g>
</svg>
