<?xml version="1.0" encoding="iso-8859-1"?>
<!-- Generator: Adobe Illustrator 16.0.0, SVG Export Plug-In . SVG Version: 6.00 Build 0)  -->
<!DOCTYPE svg PUBLIC "-//W3C//DTD SVG 1.1 Tiny//EN" "http://www.w3.org/Graphics/SVG/1.1/DTD/svg11-tiny.dtd">
<svg version="1.1" baseProfile="tiny" id="Layer_1" xmlns="http://www.w3.org/2000/svg" xmlns:xlink="http://www.w3.org/1999/xlink"
	 x="0px" y="0px" width="50px" height="50px" viewBox="0 0 50 50" xml:space="preserve">
<path fill="none" stroke="#000A00" stroke-linejoin="round" stroke-miterlimit="10" d="M26.494,5.568l-3.108,0.023
	c0,0-1.698,0.216-1.746,1.531s-0.048,2.845-0.048,2.845s0.264,0.742-0.789,1.148c-1.052,0.406-2.534,1.028-2.534,1.028
	s-0.766,0.574-1.459-0.024c-0.693-0.598-2.057-2.08-2.057-2.08s-1.22-1.005-2.486,0.191c-1.268,1.195-2.272,2.247-2.272,2.247
	s-0.812,1.053-0.023,2.249c0.789,1.195,2.08,2.08,2.08,2.08s0.478,0.454,0.264,1.147c-0.216,0.693-1.221,2.869-1.221,2.869
	s-0.19,0.694-1.1,0.813c-0.908,0.12-2.965,0.023-2.965,0.023s-1.459,0.455-1.482,1.292C5.522,23.79,5.57,26.946,5.57,26.946
	s0.191,1.1,1.34,1.292c1.147,0.19,3.228,0.119,3.228,0.119s0.622,0.095,0.933,0.86s1.1,2.702,1.1,2.702s0.455,0.574,0.024,1.147
	c-0.431,0.574-2.271,2.272-2.271,2.272s-0.694,1.147-0.048,2.009c0.646,0.86,2.917,2.821,2.917,2.821s0.933,0.502,1.674-0.023
	c0.741-0.526,2.319-2.248,2.319-2.248s0.311-0.598,1.315-0.119c1.005,0.478,2.822,1.123,2.822,1.123s0.669,0.12,0.669,1.028
	c0,0.909,0.096,3.204,0.096,3.204s0.407,1.076,1.148,1.244c0.74,0.167,4.399-0.119,4.399-0.119s0.789-0.216,0.98-0.981
	c0.191-0.765,0.072-3.539,0.072-3.539s-0.097-0.502,0.789-0.837c0.885-0.334,2.845-1.171,2.845-1.171s0.67-0.358,1.172,0.119
	c0.502,0.479,2.033,2.009,2.033,2.009s0.885,0.908,1.841,0.383c0.956-0.526,3.061-2.821,3.061-2.821s0.909-1.148-0.071-2.177
	s-1.674-1.65-1.674-1.65s-1.076-0.549-0.382-2.056c0.692-1.507,0.979-2.463,0.979-2.463s0.049-0.598,0.909-0.694
	c0.861-0.096,3.108-0.048,3.108-0.048s1.292-0.167,1.483-1.458c0.19-1.292-0.024-3.874-0.024-3.874s-0.526-1.363-1.555-1.388
	c-1.028-0.023-2.894-0.023-2.894-0.023s-0.812,0-1.124-0.908c-0.311-0.909-1.1-2.535-1.1-2.535s-0.12-1.123,0.431-1.554
	c0.55-0.431,1.912-1.985,1.912-1.985s0.742-1.004-0.119-2.104c-0.86-1.1-2.606-2.535-2.606-2.535s-1.147-0.74-2.152,0.145
	c-1.004,0.884-1.816,1.745-1.816,1.745s-0.503,0.741-1.962,0.12c-1.458-0.622-2.391-0.934-2.391-0.934s-0.67-0.525-0.67-1.171
	S28.24,6.907,28.24,6.907S28.263,5.808,26.494,5.568z"/>
<circle fill="none" stroke="#000000" stroke-linejoin="round" stroke-miterlimit="10" cx="25" cy="24.5" r="7.5"/>
</svg>
