<?xml version="1.0" encoding="utf-8"?>
<!-- Generator: Adobe Illustrator 16.0.0, SVG Export Plug-In . SVG Version: 6.00 Build 0)  -->
<!DOCTYPE svg PUBLIC "-//W3C//DTD SVG 1.1//EN" "http://www.w3.org/Graphics/SVG/1.1/DTD/svg11.dtd">
<svg version="1.1" id="Layer_4" xmlns="http://www.w3.org/2000/svg" xmlns:xlink="http://www.w3.org/1999/xlink" x="0px" y="0px"
	 width="300px" height="300px" viewBox="0 0 300 300" enable-background="new 0 0 300 300" xml:space="preserve">
<path fill="none" stroke="#000A00" stroke-width="9" stroke-miterlimit="10" d="M160.5,14.333L138.833,14.5
	c0,0-11.833,1.5-12.167,10.667S126.333,45,126.333,45s1.833,5.167-5.5,8s-17.667,7.167-17.667,7.167S97.833,64.167,93,60
	S78.667,45.498,78.667,45.498s-8.5-7-17.333,1.334S45.501,62.498,45.501,62.498s-5.667,7.334-0.167,15.667s14.5,14.501,14.5,14.501
	s3.333,3.167,1.833,8s-8.5,19.999-8.5,19.999s-1.333,4.833-7.667,5.667s-20.667,0.166-20.667,0.166s-10.167,3.167-10.333,9
	s0.167,27.833,0.167,27.833s1.333,7.666,9.333,9s22.5,0.834,22.5,0.834s4.333,0.666,6.5,5.999s7.667,18.832,7.667,18.832
	s3.167,4,0.167,8S45,221.831,45,221.831s-4.833,8-0.333,14S65,255.498,65,255.498s6.5,3.499,11.667-0.167
	s16.167-15.666,16.167-15.666S95,235.497,102,238.831s19.667,7.834,19.667,7.834s4.667,0.832,4.667,7.165S127,276.163,127,276.163
	s2.833,7.5,8,8.667s30.667-0.833,30.667-0.833s5.498-1.5,6.832-6.833s0.5-24.666,0.5-24.666s-0.667-3.501,5.5-5.834
	s19.834-8.166,19.834-8.166s4.666-2.499,8.166,0.834s14.166,14,14.166,14s6.168,6.332,12.834,2.666s21.333-19.666,21.333-19.666
	s6.335-8.002-0.499-15.168s-11.667-11.5-11.667-11.5s-7.499-3.832-2.665-14.332s6.834-17.167,6.834-17.167s0.333-4.166,6.333-4.833
	s21.667-0.334,21.667-0.334s9-1.166,10.333-10.166s-0.166-27-0.166-27s-3.668-9.5-10.834-9.667s-20.166-0.167-20.166-0.167
	s-5.667,0.001-7.834-6.333S238.5,102,238.5,102s-0.834-7.833,3-10.833s13.334-13.833,13.334-13.833s5.166-7-0.834-14.667
	S235.834,45,235.834,45s-8-5.167-15,1s-12.667,12.167-12.667,12.167S204.666,63.333,194.5,59s-16.666-6.5-16.666-6.5
	s-4.667-3.667-4.667-8.167s-0.501-20.667-0.501-20.667S172.834,16.001,160.5,14.333z"/>
<circle fill="none" stroke="#000A00" stroke-width="7" stroke-miterlimit="10" cx="150" cy="150" r="69.667"/>
</svg>
